<mxfile host="Electron" agent="Mozilla/5.0 (Windows NT 10.0; Win64; x64) AppleWebKit/537.36 (KHTML, like Gecko) draw.io/24.7.5 Chrome/126.0.6478.183 Electron/31.3.0 Safari/537.36" version="24.7.5">
  <diagram name="第 1 页" id="sTb8V6_llQWVWky71q_P">
    <mxGraphModel dx="1959" dy="1183" grid="1" gridSize="10" guides="1" tooltips="1" connect="1" arrows="1" fold="1" page="1" pageScale="1" pageWidth="827" pageHeight="1169" math="0" shadow="0">
      <root>
        <mxCell id="0" />
        <mxCell id="1" parent="0" />
        <mxCell id="-VtrnbuTWJj-WVxdNShx-5" value="" style="verticalLabelPosition=bottom;sketch=0;aspect=fixed;html=1;verticalAlign=top;strokeColor=none;align=center;outlineConnect=0;shape=mxgraph.citrix.web_server;" vertex="1" parent="1">
          <mxGeometry x="40" y="360" width="76.5" height="90" as="geometry" />
        </mxCell>
        <mxCell id="-VtrnbuTWJj-WVxdNShx-6" value="" style="verticalLabelPosition=bottom;sketch=0;aspect=fixed;html=1;verticalAlign=top;strokeColor=none;align=center;outlineConnect=0;shape=mxgraph.citrix.web_server;" vertex="1" parent="1">
          <mxGeometry x="221.75" y="360" width="76.5" height="90" as="geometry" />
        </mxCell>
        <mxCell id="-VtrnbuTWJj-WVxdNShx-7" value="" style="sketch=0;pointerEvents=1;shadow=0;dashed=0;html=1;strokeColor=none;fillColor=#505050;labelPosition=center;verticalLabelPosition=bottom;verticalAlign=top;outlineConnect=0;align=center;shape=mxgraph.office.servers.database_server_green;" vertex="1" parent="1">
          <mxGeometry x="119.12" y="50" width="100" height="110" as="geometry" />
        </mxCell>
        <mxCell id="-VtrnbuTWJj-WVxdNShx-8" value="Web A" style="text;html=1;align=center;verticalAlign=middle;resizable=0;points=[];autosize=1;strokeColor=none;fillColor=none;" vertex="1" parent="1">
          <mxGeometry x="40" y="320" width="60" height="30" as="geometry" />
        </mxCell>
        <mxCell id="-VtrnbuTWJj-WVxdNShx-9" value="Web B" style="text;html=1;align=center;verticalAlign=middle;resizable=0;points=[];autosize=1;strokeColor=none;fillColor=none;" vertex="1" parent="1">
          <mxGeometry x="221.75" y="320" width="60" height="30" as="geometry" />
        </mxCell>
        <mxCell id="-VtrnbuTWJj-WVxdNShx-10" value="" style="outlineConnect=0;dashed=0;verticalLabelPosition=bottom;verticalAlign=top;align=center;html=1;shape=mxgraph.aws3.queue;fillColor=#D9A741;gradientColor=none;" vertex="1" parent="1">
          <mxGeometry x="111.75" y="170" width="110" height="48" as="geometry" />
        </mxCell>
        <mxCell id="-VtrnbuTWJj-WVxdNShx-12" value="Rabbit MQ Server" style="text;html=1;align=center;verticalAlign=middle;resizable=0;points=[];autosize=1;strokeColor=none;fillColor=none;" vertex="1" parent="1">
          <mxGeometry x="109.12" y="20" width="120" height="30" as="geometry" />
        </mxCell>
        <mxCell id="-VtrnbuTWJj-WVxdNShx-13" value="" style="endArrow=none;html=1;rounded=0;" edge="1" parent="1" source="-VtrnbuTWJj-WVxdNShx-5">
          <mxGeometry width="50" height="50" relative="1" as="geometry">
            <mxPoint x="79.12" y="320" as="sourcePoint" />
            <mxPoint x="169.12" y="220" as="targetPoint" />
          </mxGeometry>
        </mxCell>
        <mxCell id="-VtrnbuTWJj-WVxdNShx-14" value="" style="endArrow=none;html=1;rounded=0;" edge="1" parent="1" source="-VtrnbuTWJj-WVxdNShx-6">
          <mxGeometry width="50" height="50" relative="1" as="geometry">
            <mxPoint x="89.12" y="330" as="sourcePoint" />
            <mxPoint x="169.12" y="220" as="targetPoint" />
          </mxGeometry>
        </mxCell>
        <mxCell id="-VtrnbuTWJj-WVxdNShx-33" value="" style="verticalLabelPosition=bottom;sketch=0;aspect=fixed;html=1;verticalAlign=top;strokeColor=none;align=center;outlineConnect=0;shape=mxgraph.citrix.web_server;" vertex="1" parent="1">
          <mxGeometry x="37.63" y="840" width="76.5" height="90" as="geometry" />
        </mxCell>
        <mxCell id="-VtrnbuTWJj-WVxdNShx-34" value="" style="verticalLabelPosition=bottom;sketch=0;aspect=fixed;html=1;verticalAlign=top;strokeColor=none;align=center;outlineConnect=0;shape=mxgraph.citrix.web_server;" vertex="1" parent="1">
          <mxGeometry x="219.38" y="840" width="76.5" height="90" as="geometry" />
        </mxCell>
        <mxCell id="-VtrnbuTWJj-WVxdNShx-35" value="" style="sketch=0;pointerEvents=1;shadow=0;dashed=0;html=1;strokeColor=none;fillColor=#505050;labelPosition=center;verticalLabelPosition=bottom;verticalAlign=top;outlineConnect=0;align=center;shape=mxgraph.office.servers.database_server_green;" vertex="1" parent="1">
          <mxGeometry x="116.75" y="530" width="100" height="110" as="geometry" />
        </mxCell>
        <mxCell id="-VtrnbuTWJj-WVxdNShx-36" value="Web A" style="text;html=1;align=center;verticalAlign=middle;resizable=0;points=[];autosize=1;strokeColor=none;fillColor=none;" vertex="1" parent="1">
          <mxGeometry x="37.63" y="800" width="60" height="30" as="geometry" />
        </mxCell>
        <mxCell id="-VtrnbuTWJj-WVxdNShx-37" value="Web B" style="text;html=1;align=center;verticalAlign=middle;resizable=0;points=[];autosize=1;strokeColor=none;fillColor=none;" vertex="1" parent="1">
          <mxGeometry x="219.38" y="800" width="60" height="30" as="geometry" />
        </mxCell>
        <mxCell id="-VtrnbuTWJj-WVxdNShx-38" value="" style="outlineConnect=0;dashed=0;verticalLabelPosition=bottom;verticalAlign=top;align=center;html=1;shape=mxgraph.aws3.queue;fillColor=#D9A741;gradientColor=none;" vertex="1" parent="1">
          <mxGeometry x="109.38" y="650" width="110" height="48" as="geometry" />
        </mxCell>
        <mxCell id="-VtrnbuTWJj-WVxdNShx-39" value="Rabbit MQ Server" style="text;html=1;align=center;verticalAlign=middle;resizable=0;points=[];autosize=1;strokeColor=none;fillColor=none;" vertex="1" parent="1">
          <mxGeometry x="106.75" y="500" width="120" height="30" as="geometry" />
        </mxCell>
        <mxCell id="-VtrnbuTWJj-WVxdNShx-46" value="" style="endArrow=classic;html=1;rounded=0;" edge="1" parent="1">
          <mxGeometry width="50" height="50" relative="1" as="geometry">
            <mxPoint x="90" y="840" as="sourcePoint" />
            <mxPoint x="150" y="700" as="targetPoint" />
          </mxGeometry>
        </mxCell>
        <mxCell id="-VtrnbuTWJj-WVxdNShx-47" value="" style="verticalLabelPosition=bottom;sketch=0;aspect=fixed;html=1;verticalAlign=top;strokeColor=none;align=center;outlineConnect=0;shape=mxgraph.citrix.web_server;" vertex="1" parent="1">
          <mxGeometry x="380" y="850" width="76.5" height="90" as="geometry" />
        </mxCell>
        <mxCell id="-VtrnbuTWJj-WVxdNShx-48" value="" style="verticalLabelPosition=bottom;sketch=0;aspect=fixed;html=1;verticalAlign=top;strokeColor=none;align=center;outlineConnect=0;shape=mxgraph.citrix.web_server;" vertex="1" parent="1">
          <mxGeometry x="561.75" y="850" width="76.5" height="90" as="geometry" />
        </mxCell>
        <mxCell id="-VtrnbuTWJj-WVxdNShx-49" value="" style="sketch=0;pointerEvents=1;shadow=0;dashed=0;html=1;strokeColor=none;fillColor=#505050;labelPosition=center;verticalLabelPosition=bottom;verticalAlign=top;outlineConnect=0;align=center;shape=mxgraph.office.servers.database_server_green;" vertex="1" parent="1">
          <mxGeometry x="459.12" y="540" width="100" height="110" as="geometry" />
        </mxCell>
        <mxCell id="-VtrnbuTWJj-WVxdNShx-50" value="Web A" style="text;html=1;align=center;verticalAlign=middle;resizable=0;points=[];autosize=1;strokeColor=none;fillColor=none;" vertex="1" parent="1">
          <mxGeometry x="380" y="810" width="60" height="30" as="geometry" />
        </mxCell>
        <mxCell id="-VtrnbuTWJj-WVxdNShx-51" value="Web B" style="text;html=1;align=center;verticalAlign=middle;resizable=0;points=[];autosize=1;strokeColor=none;fillColor=none;" vertex="1" parent="1">
          <mxGeometry x="561.75" y="810" width="60" height="30" as="geometry" />
        </mxCell>
        <mxCell id="-VtrnbuTWJj-WVxdNShx-52" value="" style="outlineConnect=0;dashed=0;verticalLabelPosition=bottom;verticalAlign=top;align=center;html=1;shape=mxgraph.aws3.queue;fillColor=#D9A741;gradientColor=none;" vertex="1" parent="1">
          <mxGeometry x="451.75" y="660" width="110" height="48" as="geometry" />
        </mxCell>
        <mxCell id="-VtrnbuTWJj-WVxdNShx-53" value="Rabbit MQ Server" style="text;html=1;align=center;verticalAlign=middle;resizable=0;points=[];autosize=1;strokeColor=none;fillColor=none;" vertex="1" parent="1">
          <mxGeometry x="449.12" y="510" width="120" height="30" as="geometry" />
        </mxCell>
        <mxCell id="-VtrnbuTWJj-WVxdNShx-56" value="" style="whiteSpace=wrap;html=1;movable=1;resizable=1;rotatable=1;deletable=1;editable=1;locked=0;connectable=1;fillColor=#6a00ff;fontColor=#ffffff;strokeColor=#3700CC;" vertex="1" parent="1">
          <mxGeometry x="520" y="665" width="11" height="35" as="geometry" />
        </mxCell>
        <mxCell id="-VtrnbuTWJj-WVxdNShx-59" value="" style="shape=flexArrow;endArrow=classic;html=1;rounded=0;" edge="1" parent="1" target="-VtrnbuTWJj-WVxdNShx-47">
          <mxGeometry width="50" height="50" relative="1" as="geometry">
            <mxPoint x="510" y="710" as="sourcePoint" />
            <mxPoint x="530" y="1080" as="targetPoint" />
          </mxGeometry>
        </mxCell>
        <mxCell id="-VtrnbuTWJj-WVxdNShx-60" value="" style="shape=flexArrow;endArrow=classic;html=1;rounded=0;" edge="1" parent="1" target="-VtrnbuTWJj-WVxdNShx-48">
          <mxGeometry width="50" height="50" relative="1" as="geometry">
            <mxPoint x="520" y="710" as="sourcePoint" />
            <mxPoint x="531" y="870" as="targetPoint" />
          </mxGeometry>
        </mxCell>
      </root>
    </mxGraphModel>
  </diagram>
</mxfile>
